<?xml version="1.0" encoding="utf-8"?>
<!-- Generator: Adobe Illustrator 22.1.0, SVG Export Plug-In . SVG Version: 6.00 Build 0)  -->
<svg version="1.1" id="Camada_1" xmlns="http://www.w3.org/2000/svg" xmlns:xlink="http://www.w3.org/1999/xlink" x="0px" y="0px"
	 viewBox="0 0 390 373" style="enable-background:new 0 0 390 373;" xml:space="preserve">
<path d="M67.3,129.9h31.8l4.9,171l-40.9,0L67.3,129.9L67.3,129.9L67.3,129.9z M37.3,307.1h315.3v22h18.9l0,22h18.3v22l-389.8,0v-22
	h18.3v-22h18.9L37.3,307.1L37.3,307.1L37.3,307.1z M369.1,82.2L195-0.1L20.9,82.2l0,13.4l348.2,0L369.1,82.2L369.1,82.2L369.1,82.2z
	 M54.4,101.8h281.1v22H54.4V101.8z M290.3,129.9h31.8l4.9,171l-40.9,0L290.3,129.9L290.3,129.9z M216,129.9l31.8,0l4.9,171l-40.9,0
	L216,129.9L216,129.9L216,129.9z M141.6,129.9l31.8,0l4.9,171h-40.9L141.6,129.9L141.6,129.9z"/>
</svg>
