<?xml version="1.0" encoding="UTF-8"?>
<svg viewBox="0 0 195.41899 195.41899" xmlns="http://www.w3.org/2000/svg" xmlns:xlink="http://www.w3.org/1999/xlink">
 <defs>
  <linearGradient id="a">
   <stop stop-opacity=".5846" offset="0"/>
   <stop stop-color="#eee" stop-opacity=".4308" offset="1"/>
  </linearGradient>
  <linearGradient id="t" x2="0" y1="1004.6" y2="1099.1" gradientUnits="userSpaceOnUse">
   <stop stop-color="#eee" offset="0"/>
   <stop stop-color="#eee" stop-opacity="0" offset="1"/>
  </linearGradient>
  <linearGradient id="q" x1="222.56" x2="226.09" y1="444.77" y2="440.52" gradientUnits="userSpaceOnUse" xlink:href="#a"/>
  <linearGradient id="p" x1="222.56" x2="226.09" y1="454.77" y2="450.52" gradientUnits="userSpaceOnUse" xlink:href="#a"/>
  <linearGradient id="o" x1="222.56" x2="226.09" y1="449.77" y2="445.52" gradientUnits="userSpaceOnUse" xlink:href="#a"/>
  <linearGradient id="n" x1="222.56" x2="226.09" y1="459.77" y2="455.52" gradientUnits="userSpaceOnUse" xlink:href="#a"/>
  <linearGradient id="m" x1="227.56" x2="231.09" y1="444.77" y2="440.52" gradientUnits="userSpaceOnUse" xlink:href="#a"/>
  <linearGradient id="l" x1="227.56" x2="231.09" y1="454.77" y2="450.52" gradientUnits="userSpaceOnUse" xlink:href="#a"/>
  <linearGradient id="k" x1="227.56" x2="231.09" y1="449.77" y2="445.52" gradientUnits="userSpaceOnUse" xlink:href="#a"/>
  <linearGradient id="j" x1="227.56" x2="231.09" y1="459.77" y2="455.52" gradientUnits="userSpaceOnUse" xlink:href="#a"/>
  <linearGradient id="i" x1="232.56" x2="236.09" y1="444.77" y2="440.52" gradientUnits="userSpaceOnUse" xlink:href="#a"/>
  <linearGradient id="h" x1="232.56" x2="236.09" y1="454.77" y2="450.52" gradientUnits="userSpaceOnUse" xlink:href="#a"/>
  <linearGradient id="g" x1="232.56" x2="236.09" y1="449.77" y2="445.52" gradientUnits="userSpaceOnUse" xlink:href="#a"/>
  <linearGradient id="f" x1="232.56" x2="236.09" y1="459.77" y2="455.52" gradientUnits="userSpaceOnUse" xlink:href="#a"/>
  <linearGradient id="e" x1="237.56" x2="241.09" y1="444.77" y2="440.52" gradientUnits="userSpaceOnUse" xlink:href="#a"/>
  <linearGradient id="d" x1="237.56" x2="241.09" y1="454.77" y2="450.52" gradientUnits="userSpaceOnUse" xlink:href="#a"/>
  <linearGradient id="c" x1="237.56" x2="241.09" y1="449.77" y2="445.52" gradientUnits="userSpaceOnUse" xlink:href="#a"/>
  <linearGradient id="b" x1="237.56" x2="241.09" y1="459.77" y2="455.52" gradientUnits="userSpaceOnUse" xlink:href="#a"/>
  <radialGradient id="r" cx="275.36" cy="500.28" r="76.21" gradientTransform="matrix(1.6481 .00183 -8.5511e-5 2.8938 -963.38 -308.67)" gradientUnits="userSpaceOnUse">
   <stop stop-color="#980101" offset="0"/>
   <stop offset="1"/>
  </radialGradient>
  <radialGradient id="s" cx="284.34" cy="510.29" r="88.206" gradientTransform="matrix(.00385 1.9487 -1.502 .00087946 185.72 -631.27)" gradientUnits="userSpaceOnUse">
   <stop stop-color="#ccc" offset="0"/>
   <stop offset="1"/>
  </radialGradient>
 </defs>
 <g transform="translate(667.06 81.892)">
  <path d="m-651.71-81.084h164.71c8.0593 0 14.548 7.4203 14.548 16.638v160.53c0 9.2172-6.4882 16.638-14.548 16.638h-164.71c-8.0593 0-14.548-7.4203-14.548-16.638v-160.53c0-9.2172 6.4882-16.638 14.548-16.638z" fill="url(#s)" stroke="#000" stroke-dashoffset="1.4" stroke-linecap="round" stroke-miterlimit="6" stroke-width=".81536"/>
  <g transform="translate(-79.797 -1073.6)">
   <path d="m-565.41 1015.2h151.71v148.36h-151.71z" fill="url(#r)" stroke="#000" stroke-width="1.6998"/>
   <g transform="matrix(1 0 0 5.6934 -782.93 -1469.3)" opacity=".5309" stroke="#980101" stroke-width=".1">
    <g opacity=".5514">
     <path d="m222.19 444.84v-5h5v5z" fill="url(#q)" opacity=".8066"/>
     <path d="m222.19 454.84v-5h5v5z" fill="url(#p)" opacity=".8066"/>
     <path d="m222.19 449.84v-5h5v5z" fill="url(#o)" opacity=".8066"/>
     <path d="m222.19 459.84v-5h5v5z" fill="url(#n)" opacity=".8066"/>
     <path d="m227.19 444.84v-5h5v5z" fill="url(#m)" opacity=".8066"/>
     <path d="m227.19 454.84v-5h5v5z" fill="url(#l)" opacity=".8066"/>
     <path d="m227.19 449.84v-5h5v5z" fill="url(#k)" opacity=".8066"/>
     <path d="m227.19 459.84v-5h5v5z" fill="url(#j)" opacity=".8066"/>
     <path d="m232.19 444.84v-5h5v5z" fill="url(#i)" opacity=".8066"/>
     <path d="m232.19 454.84v-5h5v5z" fill="url(#h)" opacity=".8066"/>
     <path d="m232.19 449.84v-5h5v5z" fill="url(#g)" opacity=".8066"/>
     <path d="m232.19 459.84v-5h5v5z" fill="url(#f)" opacity=".8066"/>
     <path d="m237.19 444.84v-5h5v5z" fill="url(#e)" opacity=".8066"/>
     <path d="m237.19 454.84v-5h5v5z" fill="url(#d)" opacity=".8066"/>
     <path d="m237.19 449.84v-5h5v5z" fill="url(#c)" opacity=".8066"/>
     <path d="m237.19 459.84v-5h5v5z" fill="url(#b)" opacity=".8066"/>
    </g>
    <g transform="translate(25 5.8594e-7)" opacity=".5514">
     <path d="m222.19 444.84v-5h5v5z" fill="url(#q)" opacity=".8066"/>
     <path d="m222.19 454.84v-5h5v5z" fill="url(#p)" opacity=".8066"/>
     <path d="m222.19 449.84v-5h5v5z" fill="url(#o)" opacity=".8066"/>
     <path d="m222.19 459.84v-5h5v5z" fill="url(#n)" opacity=".8066"/>
     <path d="m227.19 444.84v-5h5v5z" fill="url(#m)" opacity=".8066"/>
     <path d="m227.19 454.84v-5h5v5z" fill="url(#l)" opacity=".8066"/>
     <path d="m227.19 449.84v-5h5v5z" fill="url(#k)" opacity=".8066"/>
     <path d="m227.19 459.84v-5h5v5z" fill="url(#j)" opacity=".8066"/>
     <path d="m232.19 444.84v-5h5v5z" fill="url(#i)" opacity=".8066"/>
     <path d="m232.19 454.84v-5h5v5z" fill="url(#h)" opacity=".8066"/>
     <path d="m232.19 449.84v-5h5v5z" fill="url(#g)" opacity=".8066"/>
     <path d="m232.19 459.84v-5h5v5z" fill="url(#f)" opacity=".8066"/>
     <path d="m237.19 444.84v-5h5v5z" fill="url(#e)" opacity=".8066"/>
     <path d="m237.19 454.84v-5h5v5z" fill="url(#d)" opacity=".8066"/>
     <path d="m237.19 449.84v-5h5v5z" fill="url(#c)" opacity=".8066"/>
     <path d="m237.19 459.84v-5h5v5z" fill="url(#b)" opacity=".8066"/>
    </g>
    <g transform="translate(50 5.8594e-7)" opacity=".5514">
     <path d="m222.19 444.84v-5h5v5z" fill="url(#q)" opacity=".8066"/>
     <path d="m222.19 454.84v-5h5v5z" fill="url(#p)" opacity=".8066"/>
     <path d="m222.19 449.84v-5h5v5z" fill="url(#o)" opacity=".8066"/>
     <path d="m222.19 459.84v-5h5v5z" fill="url(#n)" opacity=".8066"/>
     <path d="m227.19 444.84v-5h5v5z" fill="url(#m)" opacity=".8066"/>
     <path d="m227.19 454.84v-5h5v5z" fill="url(#l)" opacity=".8066"/>
     <path d="m227.19 449.84v-5h5v5z" fill="url(#k)" opacity=".8066"/>
     <path d="m227.19 459.84v-5h5v5z" fill="url(#j)" opacity=".8066"/>
     <path d="m232.19 444.84v-5h5v5z" fill="url(#i)" opacity=".8066"/>
     <path d="m232.19 454.84v-5h5v5z" fill="url(#h)" opacity=".8066"/>
     <path d="m232.19 449.84v-5h5v5z" fill="url(#g)" opacity=".8066"/>
     <path d="m232.19 459.84v-5h5v5z" fill="url(#f)" opacity=".8066"/>
     <path d="m237.19 444.84v-5h5v5z" fill="url(#e)" opacity=".8066"/>
     <path d="m237.19 454.84v-5h5v5z" fill="url(#d)" opacity=".8066"/>
     <path d="m237.19 449.84v-5h5v5z" fill="url(#c)" opacity=".8066"/>
     <path d="m237.19 459.84v-5h5v5z" fill="url(#b)" opacity=".8066"/>
    </g>
    <g transform="translate(75 5.8594e-7)" opacity=".5514">
     <path d="m222.19 444.84v-5h5v5z" fill="url(#q)" opacity=".8066"/>
     <path d="m222.19 454.84v-5h5v5z" fill="url(#p)" opacity=".8066"/>
     <path d="m222.19 449.84v-5h5v5z" fill="url(#o)" opacity=".8066"/>
     <path d="m222.19 459.84v-5h5v5z" fill="url(#n)" opacity=".8066"/>
     <path d="m227.19 444.84v-5h5v5z" fill="url(#m)" opacity=".8066"/>
     <path d="m227.19 454.84v-5h5v5z" fill="url(#l)" opacity=".8066"/>
     <path d="m227.19 449.84v-5h5v5z" fill="url(#k)" opacity=".8066"/>
     <path d="m227.19 459.84v-5h5v5z" fill="url(#j)" opacity=".8066"/>
     <path d="m232.19 444.84v-5h5v5z" fill="url(#i)" opacity=".8066"/>
     <path d="m232.19 454.84v-5h5v5z" fill="url(#h)" opacity=".8066"/>
     <path d="m232.19 449.84v-5h5v5z" fill="url(#g)" opacity=".8066"/>
     <path d="m232.19 459.84v-5h5v5z" fill="url(#f)" opacity=".8066"/>
     <path d="m237.19 444.84v-5h5v5z" fill="url(#e)" opacity=".8066"/>
     <path d="m237.19 454.84v-5h5v5z" fill="url(#d)" opacity=".8066"/>
     <path d="m237.19 449.84v-5h5v5z" fill="url(#c)" opacity=".8066"/>
     <path d="m237.19 459.84v-5h5v5z" fill="url(#b)" opacity=".8066"/>
    </g>
    <g transform="translate(100 5.8594e-7)" opacity=".5514">
     <path d="m222.19 444.84v-5h5v5z" fill="url(#q)" opacity=".8066"/>
     <path d="m222.19 454.84v-5h5v5z" fill="url(#p)" opacity=".8066"/>
     <path d="m222.19 449.84v-5h5v5z" fill="url(#o)" opacity=".8066"/>
     <path d="m222.19 459.84v-5h5v5z" fill="url(#n)" opacity=".8066"/>
     <path d="m227.19 444.84v-5h5v5z" fill="url(#m)" opacity=".8066"/>
     <path d="m227.19 454.84v-5h5v5z" fill="url(#l)" opacity=".8066"/>
     <path d="m227.19 449.84v-5h5v5z" fill="url(#k)" opacity=".8066"/>
     <path d="m227.19 459.84v-5h5v5z" fill="url(#j)" opacity=".8066"/>
     <path d="m232.19 444.84v-5h5v5z" fill="url(#i)" opacity=".8066"/>
     <path d="m232.19 454.84v-5h5v5z" fill="url(#h)" opacity=".8066"/>
     <path d="m232.19 449.84v-5h5v5z" fill="url(#g)" opacity=".8066"/>
     <path d="m232.19 459.84v-5h5v5z" fill="url(#f)" opacity=".8066"/>
     <path d="m237.19 444.84v-5h5v5z" fill="url(#e)" opacity=".8066"/>
     <path d="m237.19 454.84v-5h5v5z" fill="url(#d)" opacity=".8066"/>
     <path d="m237.19 449.84v-5h5v5z" fill="url(#c)" opacity=".8066"/>
     <path d="m237.19 459.84v-5h5v5z" fill="url(#b)" opacity=".8066"/>
    </g>
    <g transform="translate(125 5.8594e-7)" opacity=".5514">
     <path d="m222.19 444.84v-5h5v5z" fill="url(#q)" opacity=".8066"/>
     <path d="m222.19 454.84v-5h5v5z" fill="url(#p)" opacity=".8066"/>
     <path d="m222.19 449.84v-5h5v5z" fill="url(#o)" opacity=".8066"/>
     <path d="m222.19 459.84v-5h5v5z" fill="url(#n)" opacity=".8066"/>
     <path d="m227.19 444.84v-5h5v5z" fill="url(#m)" opacity=".8066"/>
     <path d="m227.19 454.84v-5h5v5z" fill="url(#l)" opacity=".8066"/>
     <path d="m227.19 449.84v-5h5v5z" fill="url(#k)" opacity=".8066"/>
     <path d="m227.19 459.84v-5h5v5z" fill="url(#j)" opacity=".8066"/>
     <path d="m232.19 444.84v-5h5v5z" fill="url(#i)" opacity=".8066"/>
     <path d="m232.19 454.84v-5h5v5z" fill="url(#h)" opacity=".8066"/>
     <path d="m232.19 449.84v-5h5v5z" fill="url(#g)" opacity=".8066"/>
     <path d="m232.19 459.84v-5h5v5z" fill="url(#f)" opacity=".8066"/>
     <path d="m237.19 444.84v-5h5v5z" fill="url(#e)" opacity=".8066"/>
     <path d="m237.19 454.84v-5h5v5z" fill="url(#d)" opacity=".8066"/>
     <path d="m237.19 449.84v-5h5v5z" fill="url(#c)" opacity=".8066"/>
     <path d="m237.19 459.84v-5h5v5z" fill="url(#b)" opacity=".8066"/>
    </g>
   </g>
   <path d="m-563.23 1161.1v-146.1m3.3803 146.1v-146.1m3.3804 146.1v-146.1m3.3803 146.1v-146.1m3.3803 146.1v-146.1m3.3803 146.1v-146.1m3.3804 146.1v-146.1m3.3803 146.1v-146.1m3.3803 146.1v-146.1m3.3804 146.1v-146.1m3.3803 146.1v-146.1m3.3803 146.1v-146.1m3.3804 146.1v-146.1m3.3803 146.1v-146.1m3.3803 146.1v-146.1m3.3803 146.1v-146.1m3.3804 146.1v-146.1m3.3803 146.1v-146.1m3.3803 146.1v-146.1m3.3804 146.1v-146.1m3.3803 146.1v-146.1m3.3803 146.1v-146.1m3.3804 146.1v-146.1m3.3803 146.1v-146.1m3.3803 146.1v-146.1m3.3803 146.1v-146.1m3.3804 146.1v-146.1m3.3803 146.1v-146.1m3.3803 146.1v-146.1m3.3804 146.1v-146.1m3.3803 146.1v-146.1m3.3803 146.1v-146.1m3.3803 146.1v-146.1m3.3804 146.1v-146.1m3.3803 146.1v-146.1m3.3803 146.1v-146.1m3.3804 146.1v-146.1m3.3803 146.1v-146.1m3.3803 146.1v-146.1m3.3804 146.1v-146.1m3.3803 146.1v-146.1m3.3803 146.1v-146.1m3.3803 146.1v-146.1m3.3804 146.1v-146.1m3.3803 146.1v-146.1" fill="none" stroke="#f44800" stroke-width=".23861"/>
   <path d="m-414.89 1032.6h-150.7m150.7 11.722h-150.7m150.7 11.722h-150.7m150.7 11.722h-150.7m150.7 11.722h-150.7m150.7 11.722h-150.7m150.7 11.722h-150.7m150.7 11.722h-150.7m150.7 11.722h-150.7m150.7 11.722h-150.7m150.7 11.722h-150.7m150.7 11.722h-150.7" fill="none" stroke="#fd3301" stroke-width=".23861"/>
   <path d="m-562.89 1017h146.83v127.45h-146.83z" fill="url(#t)" opacity=".3951" stroke="#980101" stroke-linecap="round" stroke-linejoin="round" stroke-width=".5035"/>
  </g>
 </g>
</svg>
